# xmcd
#
# Track frame offsets:
# 182
# 26465
# 38765
# 54547
# 75935
# 92760
# 157912
#
# Disc length: 2314 seconds
#
# Revision: 2
# Processed by: cddbd v1.5.1PL2 Copyright (c) Steve Scherf et al.
# Submitted via: Audio-CD-Archiv 4.00.530
#
DISCID=40090807
DTITLE=Allman Brothers Band, The - Win, Lose or Draw
DYEAR=1975
DGENRE=blues
TTITLE0=The Allman Brothers Band - Can't Lose What You Never Had
TTITLE1=The Allman Brothers Band - Just Another Love Song
TTITLE2=The Allman Brothers Band - Nevertheless
TTITLE3=The Allman Brothers Band - Win, Lose or Draw
TTITLE4=The Allman Brothers Band - Louisiana Lou and Three Card Monty John
TTITLE5=The Allman Brothers Band - High Falls
TTITLE6=The Allman Brothers Band - Sweet Mama
EXTD=
EXTT0=
EXTT1=
EXTT2=
EXTT3=
EXTT4=
EXTT5=
EXTT6=
PLAYORDER=
